<?xml version="1.0" encoding="UTF-8"?>
<svg width="20px" height="12px" viewBox="0 0 20 12" version="1.1" xmlns="http://www.w3.org/2000/svg" xmlns:xlink="http://www.w3.org/1999/xlink">
    <!-- Generator: sketchtool 41 (35326) - http://www.bohemiancoding.com/sketch -->
    <title>76211DC2-9818-42E8-8ED6-2777A39E406B</title>
    <desc>Created with sketchtool.</desc>
    <defs></defs>
    <g id="Page-1" stroke="none" stroke-width="1" fill="none" fill-rule="evenodd">
        <g id="CloudClass_web_home_2" transform="translate(-1181.000000, -354.000000)" fill="#9B9B9B">
            <g id="icon-eye" transform="translate(1181.000000, 350.000000)">
                <path d="M19.0509916,9.72347865 C16.1352865,6.18949604 13.000341,4.45178519 9.7327864,4.5355128 C4.46109294,4.68288307 0.832251304,9.53835836 0.680283276,9.74477353 C0.673265644,9.75445302 0.668425898,9.76510047 0.662376215,9.77526393 C0.657294482,9.78300753 0.652696723,9.79099311 0.648098964,9.79946266 C0.637209535,9.81882165 0.628014018,9.83818063 0.620270424,9.85826558 C0.616640614,9.86794507 0.613494779,9.87762456 0.610348944,9.88730406 C0.604299262,9.90642105 0.599217528,9.92553805 0.595587719,9.94489703 C0.593167845,9.95748037 0.591715922,9.97006371 0.590505985,9.98288904 C0.588812074,9.99934418 0.587602137,10.0157993 0.587602137,10.0324964 C0.587602137,10.0489516 0.588812074,10.0654067 0.590505985,10.0818618 C0.591957909,10.0946872 0.593409833,10.1070285 0.595587719,10.1198539 C0.599217528,10.1392128 0.604299262,10.1583298 0.610348944,10.1774468 C0.613494779,10.1871263 0.616640614,10.1968058 0.620270424,10.2064853 C0.628014018,10.2265703 0.637451522,10.2459292 0.648098964,10.2652882 C0.652696723,10.2735158 0.657052494,10.2812594 0.662376215,10.289487 C0.668425898,10.2994084 0.673265644,10.3102979 0.680283276,10.3199774 C0.832251304,10.5266345 4.46109294,15.3818678 9.7327864,15.5292381 C9.81433612,15.531416 9.89540187,15.5326259 9.97646761,15.5326259 C13.1559388,15.5326259 16.2076407,13.7871715 19.0509916,10.3412722 C19.1257657,10.250769 19.1596439,10.1411487 19.1594019,10.0324964 C19.1596439,9.92360215 19.1257657,9.8139819 19.0509916,9.72347865 Z M9.76569667,14.5620148 C5.66691569,14.4504587 2.53487399,11.0490851 1.68864438,10.0324964 C2.53487399,9.01590777 5.6666737,5.61429221 9.76569667,5.50273606 C12.6264706,5.42796198 15.4052108,6.95199804 18.0419045,10.0324964 C15.4054528,13.1132368 12.6293744,14.6447745 9.76569667,14.5620148 Z M10.1158523,6.84624958 C8.35878248,6.84624958 6.92960545,8.27542661 6.92960545,10.0322545 C6.92960545,11.7893243 8.35878248,13.2185013 10.1158523,13.2185013 C11.8729221,13.2185013 13.3020992,11.7893243 13.3020992,10.0322545 C13.3020992,8.27542661 11.8729221,6.84624958 10.1158523,6.84624958 Z M10.1158523,12.2505521 C8.89260647,12.2505521 7.89755467,11.2555003 7.89755467,10.0322545 C7.89755467,8.80925061 8.89260647,7.81419881 10.1158523,7.81419881 C11.3390981,7.81419881 12.3341499,8.80925061 12.3341499,10.0322545 C12.3341499,11.2552583 11.3390981,12.2505521 10.1158523,12.2505521 Z" id="Combined-Shape"></path>
            </g>
        </g>
    </g>
</svg>