<?xml version="1.0" encoding="UTF-8"?>
<svg width="20px" height="15px" viewBox="0 0 20 15" version="1.1" xmlns="http://www.w3.org/2000/svg" xmlns:xlink="http://www.w3.org/1999/xlink">
    <!-- Generator: sketchtool 41 (35326) - http://www.bohemiancoding.com/sketch -->
    <title>A863A4F2-7299-4C6C-A7D1-7E9CDDB8498F</title>
    <desc>Created with sketchtool.</desc>
    <defs>
        <rect id="path-1" x="0" y="0" width="20" height="20"></rect>
    </defs>
    <g id="Page-1" stroke="none" stroke-width="1" fill="none" fill-rule="evenodd">
        <g id="CloudClass_web_home_2" transform="translate(-890.000000, -303.000000)">
            <g id="icon-email" transform="translate(890.000000, 300.000000)">
                <mask id="mask-2" fill="white">
                    <use xlink:href="#path-1"></use>
                </mask>
                <use id="Rectangle-5" fill="#D8D8D8" opacity="0" xlink:href="#path-1"></use>
                <path d="M1.04194974,17.6948587 L18.9605625,17.6948587 C19.5342,17.6948587 20.0007683,17.1990232 20.0007683,16.6251418 L20.0007683,4.32095777 C20.0007683,4.31876273 20.0015,4.33144519 20.0015,4.32925015 C20.0015,3.75658817 19.5346878,3.30514128 18.9608064,3.30514128 L18.9603186,3.30514128 L1.1263369,3.30514128 L1.04170585,3.30514128 C0.468068296,3.30514128 0.0015,3.74293014 0.0015,4.31656769 L0.0015,16.6251418 C0.0015,17.1990232 0.468068296,17.6948587 1.04194974,17.6948587 Z M7.20245606,9.92026511 L0.977074064,16.0956489 L0.977074064,5.22946112 L7.20245606,9.92026511 Z M19.0251943,5.30189749 L19.0251943,15.6159104 L13.150775,9.78831872 L19.0251943,5.30189749 Z M12.3725108,10.3829311 C12.3832421,10.3958575 12.3925101,10.4241491 12.4047048,10.4365877 L18.7237419,16.7192847 L1.76265508,16.7192847 L7.98998823,10.52756 L9.81455562,11.8950709 C9.90138171,11.9604344 10.0045487,11.9897016 10.1079595,11.9897016 C10.2123459,11.9897016 10.3164885,11.9545809 10.4040462,11.8877541 L12.3725108,10.3829311 Z M18.7927637,4.28071534 L10.1062523,10.9151068 L1.30047687,4.28071534 L18.7927637,4.28071534 Z" id="Shape" fill="#9B9B9B" mask="url(#mask-2)"></path>
            </g>
        </g>
    </g>
</svg>