<?xml version="1.0" encoding="UTF-8"?>
<svg width="16px" height="20px" viewBox="0 0 16 20" version="1.1" xmlns="http://www.w3.org/2000/svg" xmlns:xlink="http://www.w3.org/1999/xlink">
    <!-- Generator: sketchtool 41 (35326) - http://www.bohemiancoding.com/sketch -->
    <title>641A6F1B-9762-45FA-B7F6-C0719396871F</title>
    <desc>Created with sketchtool.</desc>
    <defs></defs>
    <g id="Page-1" stroke="none" stroke-width="1" fill="none" fill-rule="evenodd">
        <g id="CloudClass_web_home_2" transform="translate(-892.000000, -350.000000)" fill="#9B9B9B">
            <g id="icon-lock" transform="translate(890.000000, 350.000000)">
                <path d="M5.4382716,19.4736842 L15.1450617,19.4736842 C16.7192747,19.4736842 18,18.1352317 18,16.5325766 L18,10.1382325 C18,8.53557738 16.7192747,7.23171249 15.1450617,7.23171249 L15.1450617,4.85795758 C15.1450617,2.16012569 13.0167052,0 10.4007253,0 L10.3053704,0 C7.6214429,0 5.4382716,2.16012569 5.4382716,4.85795758 L5.4382716,7.23171249 C3.86405864,7.23171249 2.58333333,8.53557738 2.58333333,10.1382325 L2.58333333,16.5325766 C2.58333333,18.1352317 3.86405864,19.4736842 5.4382716,19.4736842 Z M6.58024691,4.85795758 C6.58024691,2.80130401 8.25152778,1.16260801 10.3053704,1.16260801 L10.4007253,1.16260801 C12.4205941,1.16260801 14.0030864,2.76642577 14.0030864,4.85795758 L14.0030864,7.26630008 L6.58024691,7.26630008 L6.58024691,4.85795758 Z M16.8580247,16.5671642 C16.8580247,17.5300943 16.0909028,18.3110762 15.1450617,18.3110762 L5.4382716,18.3110762 C4.49243056,18.3110762 3.72530864,17.5300943 3.72530864,16.5671642 L3.72530864,10.1728201 C3.72530864,9.20989002 4.49243056,8.42890809 5.4382716,8.42890809 L15.1450617,8.42890809 C16.0909028,8.42890809 16.8580247,9.20989002 16.8580247,10.1728201 L16.8580247,16.5671642 Z M9.43518519,14.179458 L9.43518519,15.4063001 C9.43518519,15.8678555 9.80261574,16.2765122 10.2559799,16.2765122 L10.3273534,16.2765122 C10.7807176,16.2765122 11.1481481,15.8678555 11.1481481,15.4063001 L11.1481481,14.139348 C11.661466,13.8289317 12.0066281,13.260707 12.0066281,12.6087745 C12.0066281,11.6254988 11.223804,10.828531 10.2579784,10.828531 C9.29215278,10.828531 8.5093287,11.6254988 8.5093287,12.6087745 C8.5093287,13.2891909 8.8841821,13.8797958 9.43518519,14.179458 Z" id="Combined-Shape"></path>
            </g>
        </g>
    </g>
</svg>